<svg xmlns="http://www.w3.org/2000/svg" viewBox="0 0 48 48" fill="none">
  <rect width="48" height="48" rx="12" fill="#5865F2"/>
  <path d="M32 15H16C14.5 15 13 16.5 13 18V33C13 34.5 14.5 36 16 36H29L28 32L30 34L32 36L36 39V18C36 16.5 34.5 15 32 15ZM28 29C27 30 25.5 30.5 24 30.5C22.5 30.5 21 30 20 29L21 27C21.5 27.5 22.5 28 24 28C25.5 28 26.5 27.5 27 27L28 29ZM21 25C20 25 19 24 19 23C19 22 20 21 21 21C22 21 23 22 23 23C23 24 22 25 21 25ZM27 25C26 25 25 24 25 23C25 22 26 21 27 21C28 21 29 22 29 23C29 24 28 25 27 25Z" fill="white"/>
</svg>
