<svg xmlns="http://www.w3.org/2000/svg" viewBox="0 0 48 48" fill="none">
  <rect width="48" height="48" rx="12" fill="#000000"/>
  <path d="M34.5 16.5C32.5 13 29 11 24 11C18 11 14 14 12.5 19C11.5 22 12 25.5 14 28.5L10 38L20 34C22 35 24.5 35.5 27 35C32 34 36 30 37.5 24.5C38.5 20.5 37.5 17.5 34.5 16.5Z" fill="#25F4EE"/>
  <path d="M31.5 20C30 17.5 27.5 16 24.5 16C20.5 16 17.5 18.5 16.5 22C15.5 25.5 17 29 20 31L16 37L24 34C26 34.5 28 34.5 30 33.5C33.5 32 36 28.5 36.5 24.5C37 21.5 35 19 31.5 20Z" fill="#FE2C55"/>
  <path d="M24 18C21.5 18 19.5 20 19.5 22.5C19.5 25 21.5 27 24 27C26.5 27 28.5 25 28.5 22.5C28.5 20 26.5 18 24 18Z" fill="white"/>
</svg>
